<svg xmlns="http://www.w3.org/2000/svg" width="1654.367" height="500" viewBox="600 700 1654.367 500"><rect x="600" y="700" width="1654.367" height="500" fill="white"/><defs><linearGradient id="a" x1="856" x2="856" y1="700" y2="1212" gradientTransform="matrix(-.71232 -.67984 .97656 -.97656 483.164 2545.367)" gradientUnits="userSpaceOnUse" spreadMethod="pad"><stop offset="0" style="stop-color:#3480eb"/><stop offset="1" style="stop-color:#9146f0"/></linearGradient></defs><g transform="translate(42.987 -79.833)"><path d="M910.163 779.833c77.962 0 141.734 60.753 146.557 137.499H955.438c-5.55-21.565-25.127-37.499-48.424-37.499-27.614 0-50 22.386-50 50 0 23.299 15.935 42.874 37.5 48.425v103.154c-21.565 5.551-37.5 25.127-37.5 48.425s15.935 42.873 37.5 48.424v101.572H703.863l-.775-.002h16.424v-101.567c21.566-5.551 37.501-25.128 37.501-48.427 0-27.616-22.386-50.004-50-50.004-23.296 0-42.871 15.934-48.423 37.498H557.013V926.683c0-77.962 60.753-141.734 137.499-146.557v101.283c-21.565 5.55-37.499 25.127-37.499 48.424 0 27.615 22.386 50 50 50s50-22.385 50-50c0-23.298-15.935-42.875-37.501-48.425V779.833h190.651Zm45.276 162.5h101.574v190.65c0 77.962-60.753 141.734-137.499 146.557v-101.279c21.565-5.551 37.5-25.126 37.5-48.424s-15.935-42.874-37.5-48.425V978.258c17.57-4.522 31.402-18.354 35.925-35.925Zm-260.927 235.93v101.277c-73.655-4.629-132.579-63.553-137.206-137.208h101.281c4.521 17.573 18.353 31.408 35.925 35.931Z" style="stroke-width:1.33333px;fill:url(#a);paint-order:fill;fill-rule:nonzero"/><path d="M2164.6 904.696v24.864h46.78v-49.727h-46.78v24.863Zm-940.87-16.59c-.6.045-2.75.181-4.74.316-15.42 1.04-27.99 4.091-36.39 8.86-13.08 7.414-19.6 19.439-21.35 39.511-.61 7.12-.5 22.219.24 30.514 2.24 25.176 10.79 35.513 36.15 43.733 5.41 1.74 12.45 3.57 22.2 5.77 4.5 1.01 10.63 2.46 13.62 3.21 16.23 4.07 21.46 7.34 23.17 14.43 1.18 4.95 1.18 16.81.02 22.14-2.04 9.24-8.17 12.6-23.93 13.06-20.68.63-40-2.1-63.18-8.92-2.35-.68-4.35-1.16-4.45-1.07-.2.26-8.21 37.39-8.07 37.52.29.29 7.78 3.23 11.22 4.41 13.55 4.63 27.85 7.53 44.65 9.05 4.34.37 20.82.51 26.44.22 30.2-1.63 47.47-8.23 57.21-21.89 7.75-10.84 10.59-26.48 9.6-53.17-.51-14.2-1.68-20.82-4.88-27.47-6.22-12.928-20.1-20.364-53.22-28.5-20.98-5.154-23.72-5.9-27.88-7.55-5.8-2.329-8.47-4.973-9.64-9.607-.85-3.277-1.18-12.635-.66-17.855.9-9.019 4.54-12.726 13.99-14.241 7.63-1.221 25.91-.814 41.72.927 6.09.678 16.82 2.193 25.04 3.549 3.69.609 5.89.881 5.93.723.14-.43 4.87-40.64 4.77-40.708-.16-.181-9.14-1.922-14.37-2.78-10.95-1.831-20.5-2.961-33.14-3.888-3.17-.226-27.59-.475-30.07-.294Zm610.08 3.3c-.23.655-65.9 216.264-65.9 216.374 0 .07 11.42.09 25.37.07l25.37-.07 5.72-20.56c3.12-11.33 5.71-20.8 5.81-21.09l.13-.5 36.32.05 36.34.06 5.76 20.8c3.17 11.43 5.85 20.92 5.89 21.09.07.22 5.28.26 25.45.22l25.32-.07-33.17-108.261-33.14-108.271-32.58-.068c-25.96-.045-32.63 0-32.69.226Zm45.03 88.147c6.74 24.787 12.26 45.127 12.26 45.217 0 .11-11.18.17-24.87.17-20.66 0-24.88-.04-24.79-.3.08-.17 5.7-20.51 12.49-45.198 6.82-24.702 12.46-44.909 12.52-44.909.09 0 5.66 20.274 12.39 45.02Zm-482.99-33.357c-3.93.203-8.71.61-10.94.903-29.36 3.956-46.53 19.417-51.21 46.138-1.18 6.704-1.2 6.983-1.28 32.273-.12 24.88-.02 28.63.86 34.89 1.61 11.49 5.63 21.64 11.62 29.07 8.42 10.53 21.43 17.39 38.17 20.1 7.7 1.27 12.97 1.58 23.07 1.42 12.09-.2 22.27-1.33 34.69-3.88 8.87-1.81 21.95-5.56 21.95-6.26 0-.28-6.54-34.04-6.71-34.56-.09-.35-.19-.35-1.17-.07-9.22 2.8-24.98 5.39-37.73 6.21-5.59.36-17.49.16-20.57-.34-9.27-1.51-13.69-4.61-15.9-11.23-.94-2.81-1.33-5.7-1.51-11.12l-.12-4.68h85.5v-16.69c0-17.3-.21-24.71-.82-30.16-2.75-25.025-13.66-40.419-33.8-47.652-5.09-1.808-12.11-3.3-18.72-3.91-3.5-.339-12.59-.611-15.38-.452Zm8.82 36.931c4.92.61 8.05 1.942 10.66 4.528 3.68 3.673 4.79 7.525 4.82 16.835l.02 5.43h-40.91l-.08-3.4c-.18-9.309 1.42-14.625 5.55-18.466 2.58-2.352 5.74-3.862 9.58-4.561 3.3-.611 7.24-.744 10.36-.366Zm293.06-36.818c-8.89.611-19.22 3.3-29.54 7.685-4.03 1.718-10.04 4.747-13.13 6.6l-2.44 1.47-.28-.702c-.17-.406-1.26-3.232-2.43-6.306l-2.14-5.605h-36.72v114.479c0 105.04.03 114.48.35 114.48.22 0 10.62-1.42 23.16-3.16 12.54-1.74 22.88-3.16 23.03-3.16.17 0 .24-9.59.24-32.73v-32.75l1.87.41c8.04 1.79 18.54 3.16 29.07 3.84 5.47.34 16.39.15 20.03-.35 15.36-2.14 26.07-8.24 33.22-18.89 1.71-2.55 4.4-8.06 5.51-11.3 1.72-5.02 2.83-10.42 3.6-17.29.29-2.63.35-7.89.44-30.74.12-28.01 0-34.225-.72-40.118-2.25-18.581-9.4-31.578-21.4-39.014-6.52-4.046-14.2-6.262-23.8-6.872-3.74-.249-4.31-.249-7.92.023Zm-7.58 40.669c4.5.422 7.33 1.531 9.75 3.796 2.43 2.253 3.76 4.972 4.39 8.923.5 3.093.5 54.743 0 57.633-1.1 6.17-4.05 10.07-9.14 11.92-2.71.99-4.85 1.22-10.43 1.05-5.08-.13-10.13-.65-16.03-1.59-3.55-.59-8.4-1.55-9.99-1.95l-.87-.25v-67.29l.97-.833c1.49-1.287 5.93-4.206 8.56-5.605 6.81-3.662 13.04-5.516 19.99-6.015.24 0 1.49.089 2.8.211Zm387.54-40.782c-13.33.791-30.37 6.396-43.78 14.398l-2.42 1.446-1.11-2.848c-.61-1.559-1.69-4.407-2.43-6.306l-1.32-3.435h-36.76v114.479c0 105.78.02 114.48.38 114.48.19 0 10.64-1.42 23.18-3.16 12.54-1.74 22.91-3.16 23-3.16.15 0 .24-12.04.24-32.73v-32.73l4.13.83c6.83 1.39 12.79 2.2 22.09 3.08 5.29.5 20.1.56 23.74.12 6.99-.89 13.43-2.72 18.73-5.41 4.33-2.17 7-4.09 10.42-7.52 6.6-6.6 10.61-14.72 12.87-25.99 1.67-8.37 1.83-11.6 1.83-43.18 0-31.394-.16-34.535-1.83-42.947-4.58-23.052-18.19-36.343-40-38.965-2.93-.339-8.62-.587-10.96-.452Zm-8.49 40.782c2.86.266 4.49.721 6.73 1.798 3.46 1.698 5.7 4.706 6.9 9.267l.5 1.92v57.187l-.5 1.9c-1.4 5.23-4.55 8.81-9.05 10.29-2.94.96-4.46 1.11-9.98.96-5.03-.13-8.17-.42-14.36-1.31-3.1-.44-10.24-1.81-11.9-2.26l-.87-.22v-67.335l1.3-1.01c7.39-5.904 17.83-10.399 25.88-11.165 2.62-.277 2.98-.277 5.35-.022Zm-488.67-40.104c-10.2 2.667-26.15 9.629-36.72 16.025-1.78 1.086-2.77 1.56-2.87 1.402-.06-.159-.83-3.549-1.66-7.572l-1.53-7.278h-39.05v158.439h46.81v-96.68l2.42-1.59c8.09-5.22 22.08-12.143 35.8-17.67 1.91-.777 3.53-1.476 3.63-1.543.1-.088-.7-9.877-1.77-21.744-1.04-11.867-1.91-21.767-1.91-21.992 0-.52-.53-.498-3.15.203Zm584.07 81.796v79.22h46.78V949.451h-46.78v79.219Z" style="stroke:#fff;stroke-width:.2;stroke-miterlimit:4;stroke-dasharray:none;stroke-opacity:1"/></g></svg>
